<svg version="1.1" id="Layer_1" xmlns="http://www.w3.org/2000/svg" xmlns:xlink="http://www.w3.org/1999/xlink" x="0px" y="0px"
	 width="100%" viewBox="0 0 500 500" enable-background="new 0 0 500 500" xml:space="preserve">
<path fill="#000000" opacity="1.000000" stroke="none" 
	d="
M274.000000,501.000000 
	C182.666687,501.000000 91.833374,501.000000 1.000049,501.000000 
	C1.000032,334.333405 1.000032,167.666794 1.000016,1.000138 
	C167.666565,1.000092 334.333130,1.000092 500.999756,1.000046 
	C500.999847,167.666519 500.999847,334.333038 500.999939,500.999786 
	C425.500000,501.000000 350.000000,501.000000 274.000000,501.000000 
M169.176743,301.625305 
	C165.635681,306.975342 162.094620,312.325348 157.860275,318.722809 
	C163.616272,318.722809 167.440384,318.870209 171.241470,318.639069 
	C172.492477,318.562988 174.134338,317.828552 174.832260,316.849609 
	C181.159637,307.974487 187.383591,299.023315 193.506271,290.005127 
	C199.807373,280.724152 205.961334,271.343292 212.357391,261.739288 
	C217.233002,268.280945 221.687317,274.314331 226.233276,280.277832 
	C226.747726,280.952728 227.767944,281.612640 228.571701,281.635193 
	C233.166870,281.763977 237.767517,281.697784 243.981003,281.697784 
	C239.644089,275.845306 236.661575,270.700684 232.624634,266.592163 
	C222.348083,256.133423 221.830673,253.892868 228.001511,244.366760 
	C239.548096,226.541962 250.829834,208.545441 262.195587,190.603775 
	C263.506256,188.534775 264.650513,186.360382 266.420898,183.279541 
	C262.342926,183.279541 259.663208,183.573456 257.074829,183.212479 
	C252.918655,182.632858 250.138504,184.006607 248.135254,187.708176 
	C245.138260,193.245880 242.026901,198.733719 238.698456,204.077255 
	C233.661179,212.164200 228.436188,220.135544 223.211517,228.103943 
	C220.018341,232.974014 216.676453,237.746567 213.054733,243.072662 
	C210.232254,239.100754 208.218765,235.844360 205.778000,232.948029 
	C203.183273,229.868988 200.656509,225.810837 197.238190,224.586487 
	C193.178894,223.132553 188.200577,224.244446 183.026337,224.244446 
	C183.633240,225.947311 183.753098,226.972366 184.289642,227.682678 
	C189.768600,234.936401 194.944382,242.473694 201.015121,249.200546 
	C203.657089,252.128052 202.680969,253.513855 201.100632,255.783020 
	C195.154068,264.321594 189.268906,272.902924 183.347931,281.459351 
	C178.813293,288.012360 174.259399,294.552002 169.176743,301.625305 
M99.174767,252.739380 
	C99.174767,262.020782 99.174767,271.302185 99.174767,281.168457 
	C103.584908,280.735901 107.438789,280.357880 111.902512,279.920044 
	C111.385895,266.796082 110.606125,254.026169 110.449776,241.248611 
	C110.250603,224.971420 92.867546,221.388321 83.185585,225.789597 
	C79.805580,227.326080 76.528702,229.089417 72.844788,230.928879 
	C72.844788,220.566269 72.844788,210.456680 72.844788,200.292694 
	C68.406967,201.068695 64.294914,201.787735 60.776619,202.402954 
	C60.776619,228.326614 60.776619,254.027237 60.776619,279.992493 
	C65.164253,279.992493 68.755699,279.992493 72.733215,279.992493 
	C72.733215,271.202850 72.535431,262.571838 72.823074,253.957016 
	C72.952003,250.095474 73.674263,246.150162 74.808609,242.451843 
	C76.247597,237.760330 83.182007,234.018631 88.686783,234.923386 
	C94.232498,235.834900 97.628006,239.119690 98.355240,244.719925 
	C98.660683,247.072098 98.905289,249.432159 99.174767,252.739380 
M420.334808,243.996475 
	C419.558380,245.234573 418.781921,246.472672 418.005493,247.710770 
	C417.481079,247.382919 416.956665,247.055069 416.432251,246.727219 
	C416.432251,231.568069 416.432251,216.408905 416.432251,201.022385 
	C412.414703,201.491547 409.004852,201.889740 405.445679,202.305359 
	C405.445679,228.561172 405.445679,254.610077 405.445679,281.226471 
	C409.273193,280.826172 412.777954,280.459595 415.570618,280.167511 
	C418.465179,271.876862 412.156952,262.398163 421.349731,255.866119 
	C427.022705,263.250854 432.511536,270.460327 438.095673,277.595245 
	C438.928131,278.658875 440.158325,280.042206 441.290619,280.126862 
	C445.380310,280.432770 449.506775,280.247223 454.740234,280.247223 
	C450.020416,274.341461 445.932678,269.351990 441.985931,264.253387 
	C437.953857,259.044525 434.060089,253.728607 429.970490,248.279327 
	C437.413727,240.997864 444.892822,233.681290 453.047180,225.704163 
	C447.671326,225.704163 443.371765,225.602646 439.083313,225.775757 
	C438.015442,225.818878 436.736664,226.512878 435.974701,227.309372 
	C430.875458,232.639526 425.889801,238.078369 420.334808,243.996475 
M305.862518,238.134521 
	C311.654358,233.991776 319.242920,233.134842 323.859131,236.947205 
	C325.678711,238.449982 326.119629,241.680008 326.919952,244.208466 
	C326.965637,244.352783 324.626556,245.510437 323.311554,245.783890 
	C316.275208,247.246994 309.080536,248.120087 302.194489,250.086288 
	C295.402222,252.025742 290.333374,259.059937 290.495972,264.682892 
	C290.702881,271.837921 295.782166,278.715881 302.982697,280.809509 
	C311.607330,283.317291 319.532166,281.638580 326.373627,275.514954 
	C326.737091,277.473694 327.056000,279.192169 327.442352,281.274231 
	C331.203217,280.852081 334.592773,280.471588 338.369263,280.047668 
	C338.369263,266.851227 338.537689,254.050568 338.302368,241.257339 
	C338.173431,234.249252 329.771057,225.282059 322.868378,224.572556 
	C312.831757,223.540924 303.019226,223.833069 295.854401,232.557465 
	C294.548401,234.147751 293.253540,236.103302 293.009247,238.024490 
	C292.918457,238.738281 295.803528,239.945938 297.427490,240.729401 
	C299.001495,241.488770 300.698761,241.992630 302.082764,242.511566 
	C303.422882,240.905655 304.369843,239.770874 305.862518,238.134521 
M127.025261,233.614700 
	C123.536850,238.357361 123.652267,238.656403 129.656860,240.751175 
	C131.184784,241.284225 132.691940,241.876770 134.128265,242.412033 
	C139.898209,235.250275 146.717163,232.600021 153.470703,235.029648 
	C157.895264,236.621460 158.746048,240.464661 158.909348,244.839767 
	C154.045410,245.520401 149.176804,245.861160 144.483246,246.953827 
	C139.751831,248.055359 134.740219,249.165329 130.699402,251.650482 
	C127.263840,253.763367 123.049690,257.600342 122.630959,261.088776 
	C121.154747,273.386871 128.748169,281.062561 141.057892,281.795471 
	C147.770752,282.195129 152.980774,279.341522 158.238510,275.267975 
	C158.426666,277.398132 158.568588,279.004852 158.753876,281.102509 
	C162.501190,280.715057 166.032532,280.349915 169.736160,279.966980 
	C169.736160,267.383453 169.882965,255.068832 169.683121,242.759811 
	C169.555679,234.911026 162.224045,225.289871 155.185226,224.530975 
	C144.911377,223.423279 134.778900,224.021683 127.025261,233.614700 
M347.468719,262.935608 
	C351.725128,275.797974 363.763855,284.481598 378.501190,281.695557 
	C386.512848,280.180969 391.946106,275.619263 395.680634,268.260590 
	C392.916931,266.272522 390.298920,264.389252 387.689697,262.512329 
	C385.614960,264.808105 384.012939,266.828369 382.158997,268.582367 
	C377.883820,272.627167 372.163696,272.951447 366.940125,269.619385 
	C359.345001,264.774536 356.059814,256.557739 358.304169,248.019333 
	C361.610718,235.440048 371.457825,231.169769 381.773468,238.103271 
	C384.139954,239.693863 385.763214,242.390152 387.939148,244.812012 
	C390.927551,243.041412 393.876221,241.294373 396.797241,239.563705 
	C390.600067,225.504623 373.427643,219.901886 359.975891,227.342957 
	C349.141876,233.336029 343.125916,246.506256 347.468719,262.935608 
M259.374969,263.353943 
	C258.243835,278.512634 271.337067,284.634735 283.385010,280.571411 
	C283.385010,277.506073 283.385010,274.409576 283.385010,271.232758 
	C282.155731,271.171204 281.164886,271.129639 280.175110,271.070618 
	C274.138641,270.710785 271.610504,268.982239 271.318817,263.285858 
	C270.871338,254.547501 271.201263,245.769348 271.201263,236.566559 
	C275.702606,236.566559 279.450958,236.566559 283.282471,236.566559 
	C283.282471,232.882126 283.282471,229.657120 283.282471,226.119354 
	C279.170074,226.119354 275.380280,226.119354 271.402466,226.119354 
	C271.248688,222.942001 271.109833,220.072037 270.949738,216.763733 
	C266.847961,217.355118 263.236664,217.875793 259.389801,218.430420 
	C259.389801,221.180405 259.389801,223.452286 259.389801,225.902771 
	C256.859924,226.085938 254.624207,226.247818 252.379974,226.410309 
	C252.379974,229.827576 252.379974,232.912781 252.379974,236.071701 
	C254.801208,236.459763 257.020355,236.815414 259.375214,237.192841 
	C259.375214,245.787720 259.375214,254.088715 259.374969,263.353943 
z"/>
<path fill="#EB0F17" opacity="1.000000" stroke="none" 
	d="
M169.445404,301.361450 
	C174.259399,294.552002 178.813293,288.012360 183.347931,281.459351 
	C189.268906,272.902924 195.154068,264.321594 201.100632,255.783020 
	C202.680969,253.513855 203.657089,252.128052 201.015121,249.200546 
	C194.944382,242.473694 189.768600,234.936401 184.289642,227.682678 
	C183.753098,226.972366 183.633240,225.947311 183.026337,224.244446 
	C188.200577,224.244446 193.178894,223.132553 197.238190,224.586487 
	C200.656509,225.810837 203.183273,229.868988 205.778000,232.948029 
	C208.218765,235.844360 210.232254,239.100754 213.054733,243.072662 
	C216.676453,237.746567 220.018341,232.974014 223.211517,228.103943 
	C228.436188,220.135544 233.661179,212.164200 238.698456,204.077255 
	C242.026901,198.733719 245.138260,193.245880 248.135254,187.708176 
	C250.138504,184.006607 252.918655,182.632858 257.074829,183.212479 
	C259.663208,183.573456 262.342926,183.279541 266.420898,183.279541 
	C264.650513,186.360382 263.506256,188.534775 262.195587,190.603775 
	C250.829834,208.545441 239.548096,226.541962 228.001511,244.366760 
	C221.830673,253.892868 222.348083,256.133423 232.624634,266.592163 
	C236.661575,270.700684 239.644089,275.845306 243.981003,281.697784 
	C237.767517,281.697784 233.166870,281.763977 228.571701,281.635193 
	C227.767944,281.612640 226.747726,280.952728 226.233276,280.277832 
	C221.687317,274.314331 217.233002,268.280945 212.357391,261.739288 
	C205.961334,271.343292 199.807373,280.724152 193.506271,290.005127 
	C187.383591,299.023315 181.159637,307.974487 174.832260,316.849609 
	C174.134338,317.828552 172.492477,318.562988 171.241470,318.639069 
	C167.440384,318.870209 163.616272,318.722809 157.860275,318.722809 
	C162.094620,312.325348 165.635681,306.975342 169.445404,301.361450 
z"/>
<path fill="#F3F3F3" opacity="1.000000" stroke="none" 
	d="
M99.176163,252.264008 
	C98.905289,249.432159 98.660683,247.072098 98.355240,244.719925 
	C97.628006,239.119690 94.232498,235.834900 88.686783,234.923386 
	C83.182007,234.018631 76.247597,237.760330 74.808609,242.451843 
	C73.674263,246.150162 72.952003,250.095474 72.823074,253.957016 
	C72.535431,262.571838 72.733215,271.202850 72.733215,279.992493 
	C68.755699,279.992493 65.164253,279.992493 60.776619,279.992493 
	C60.776619,254.027237 60.776619,228.326614 60.776619,202.402954 
	C64.294914,201.787735 68.406967,201.068695 72.844788,200.292694 
	C72.844788,210.456680 72.844788,220.566269 72.844788,230.928879 
	C76.528702,229.089417 79.805580,227.326080 83.185585,225.789597 
	C92.867546,221.388321 110.250603,224.971420 110.449776,241.248611 
	C110.606125,254.026169 111.385895,266.796082 111.902512,279.920044 
	C107.438789,280.357880 103.584908,280.735901 99.174767,281.168457 
	C99.174767,271.302185 99.174767,262.020782 99.176163,252.264008 
z"/>
<path fill="#F7F7F7" opacity="1.000000" stroke="none" 
	d="
M420.601044,243.739212 
	C425.889801,238.078369 430.875458,232.639526 435.974701,227.309372 
	C436.736664,226.512878 438.015442,225.818878 439.083313,225.775757 
	C443.371765,225.602646 447.671326,225.704163 453.047180,225.704163 
	C444.892822,233.681290 437.413727,240.997864 429.970490,248.279327 
	C434.060089,253.728607 437.953857,259.044525 441.985931,264.253387 
	C445.932678,269.351990 450.020416,274.341461 454.740234,280.247223 
	C449.506775,280.247223 445.380310,280.432770 441.290619,280.126862 
	C440.158325,280.042206 438.928131,278.658875 438.095673,277.595245 
	C432.511536,270.460327 427.022705,263.250854 421.349731,255.866119 
	C412.156952,262.398163 418.465179,271.876862 415.570618,280.167511 
	C412.777954,280.459595 409.273193,280.826172 405.445679,281.226471 
	C405.445679,254.610077 405.445679,228.561172 405.445679,202.305359 
	C409.004852,201.889740 412.414703,201.491547 416.432251,201.022385 
	C416.432251,216.408905 416.432251,231.568069 416.432251,246.727219 
	C416.956665,247.055069 417.481079,247.382919 418.005493,247.710770 
	C418.781921,246.472672 419.558380,245.234573 420.601044,243.739212 
z"/>
<path fill="#F6F6F6" opacity="1.000000" stroke="none" 
	d="
M305.589661,238.385315 
	C304.369843,239.770874 303.422882,240.905655 302.082764,242.511566 
	C300.698761,241.992630 299.001495,241.488770 297.427490,240.729401 
	C295.803528,239.945938 292.918457,238.738281 293.009247,238.024490 
	C293.253540,236.103302 294.548401,234.147751 295.854401,232.557465 
	C303.019226,223.833069 312.831757,223.540924 322.868378,224.572556 
	C329.771057,225.282059 338.173431,234.249252 338.302368,241.257339 
	C338.537689,254.050568 338.369263,266.851227 338.369263,280.047668 
	C334.592773,280.471588 331.203217,280.852081 327.442352,281.274231 
	C327.056000,279.192169 326.737091,277.473694 326.373627,275.514954 
	C319.532166,281.638580 311.607330,283.317291 302.982697,280.809509 
	C295.782166,278.715881 290.702881,271.837921 290.495972,264.682892 
	C290.333374,259.059937 295.402222,252.025742 302.194489,250.086288 
	C309.080536,248.120087 316.275208,247.246994 323.311554,245.783890 
	C324.626556,245.510437 326.965637,244.352783 326.919952,244.208466 
	C326.119629,241.680008 325.678711,238.449982 323.859131,236.947205 
	C319.242920,233.134842 311.654358,233.991776 305.589661,238.385315 
M327.189423,258.270477 
	C327.110748,257.026733 327.032074,255.782959 326.951324,254.506454 
	C325.813049,254.671509 324.986664,254.755157 324.175262,254.914810 
	C318.724915,255.987198 313.160919,256.690552 307.871063,258.295654 
	C304.393646,259.350739 302.357758,262.339203 303.122681,266.388367 
	C303.841370,270.192810 306.607880,271.852020 310.063629,272.397797 
	C317.703827,273.604553 326.639252,268.887878 327.189423,258.270477 
z"/>
<path fill="#F4F4F4" opacity="1.000000" stroke="none" 
	d="
M127.204697,233.292023 
	C134.778900,224.021683 144.911377,223.423279 155.185226,224.530975 
	C162.224045,225.289871 169.555679,234.911026 169.683121,242.759811 
	C169.882965,255.068832 169.736160,267.383453 169.736160,279.966980 
	C166.032532,280.349915 162.501190,280.715057 158.753876,281.102509 
	C158.568588,279.004852 158.426666,277.398132 158.238510,275.267975 
	C152.980774,279.341522 147.770752,282.195129 141.057892,281.795471 
	C128.748169,281.062561 121.154747,273.386871 122.630959,261.088776 
	C123.049690,257.600342 127.263840,253.763367 130.699402,251.650482 
	C134.740219,249.165329 139.751831,248.055359 144.483246,246.953827 
	C149.176804,245.861160 154.045410,245.520401 158.909348,244.839767 
	C158.746048,240.464661 157.895264,236.621460 153.470703,235.029648 
	C146.717163,232.600021 139.898209,235.250275 134.128265,242.412033 
	C132.691940,241.876770 131.184784,241.284225 129.656860,240.751175 
	C123.652267,238.656403 123.536850,238.357361 127.204697,233.292023 
M152.311844,270.052948 
	C157.974716,266.267487 159.500870,260.827240 158.919907,253.963440 
	C153.227112,254.936707 147.869431,255.548737 142.672821,256.819519 
	C136.445969,258.342224 134.925003,260.704742 135.134186,266.444275 
	C135.316833,271.455841 139.556091,271.676514 142.659317,272.091217 
	C145.556900,272.478424 148.684372,271.145569 152.311844,270.052948 
z"/>
<path fill="#F4F4F4" opacity="1.000000" stroke="none" 
	d="
M347.381134,262.535767 
	C343.125916,246.506256 349.141876,233.336029 359.975891,227.342957 
	C373.427643,219.901886 390.600067,225.504623 396.797241,239.563705 
	C393.876221,241.294373 390.927551,243.041412 387.939148,244.812012 
	C385.763214,242.390152 384.139954,239.693863 381.773468,238.103271 
	C371.457825,231.169769 361.610718,235.440048 358.304169,248.019333 
	C356.059814,256.557739 359.345001,264.774536 366.940125,269.619385 
	C372.163696,272.951447 377.883820,272.627167 382.158997,268.582367 
	C384.012939,266.828369 385.614960,264.808105 387.689697,262.512329 
	C390.298920,264.389252 392.916931,266.272522 395.680634,268.260590 
	C391.946106,275.619263 386.512848,280.180969 378.501190,281.695557 
	C363.763855,284.481598 351.725128,275.797974 347.381134,262.535767 
z"/>
<path fill="#F1F1F1" opacity="1.000000" stroke="none" 
	d="
M259.375092,262.871826 
	C259.375214,254.088715 259.375214,245.787720 259.375214,237.192841 
	C257.020355,236.815414 254.801208,236.459763 252.379974,236.071701 
	C252.379974,232.912781 252.379974,229.827576 252.379974,226.410309 
	C254.624207,226.247818 256.859924,226.085938 259.389801,225.902771 
	C259.389801,223.452286 259.389801,221.180405 259.389801,218.430420 
	C263.236664,217.875793 266.847961,217.355118 270.949738,216.763733 
	C271.109833,220.072037 271.248688,222.942001 271.402466,226.119354 
	C275.380280,226.119354 279.170074,226.119354 283.282471,226.119354 
	C283.282471,229.657120 283.282471,232.882126 283.282471,236.566559 
	C279.450958,236.566559 275.702606,236.566559 271.201263,236.566559 
	C271.201263,245.769348 270.871338,254.547501 271.318817,263.285858 
	C271.610504,268.982239 274.138641,270.710785 280.175110,271.070618 
	C281.164886,271.129639 282.155731,271.171204 283.385010,271.232758 
	C283.385010,274.409576 283.385010,277.506073 283.385010,280.571411 
	C271.337067,284.634735 258.243835,278.512634 259.375092,262.871826 
z"/>
<path fill="#060606" opacity="1.000000" stroke="none" 
	d="
M327.179718,258.730774 
	C326.639252,268.887878 317.703827,273.604553 310.063629,272.397797 
	C306.607880,271.852020 303.841370,270.192810 303.122681,266.388367 
	C302.357758,262.339203 304.393646,259.350739 307.871063,258.295654 
	C313.160919,256.690552 318.724915,255.987198 324.175262,254.914810 
	C324.986664,254.755157 325.813049,254.671509 326.951324,254.506454 
	C327.032074,255.782959 327.110748,257.026733 327.179718,258.730774 
z"/>
<path fill="#080808" opacity="1.000000" stroke="none" 
	d="
M152.011246,270.311401 
	C148.684372,271.145569 145.556900,272.478424 142.659317,272.091217 
	C139.556091,271.676514 135.316833,271.455841 135.134186,266.444275 
	C134.925003,260.704742 136.445969,258.342224 142.672821,256.819519 
	C147.869431,255.548737 153.227112,254.936707 158.919907,253.963440 
	C159.500870,260.827240 157.974716,266.267487 152.011246,270.311401 
z"/>
</svg>